{"accessors" : [{"bufferView" : 0, "byteOffset" : 0, "componentType" : 5123, "count" : 276, "type" : "SCALAR", "max" : [113], "min" : [0]}, {"bufferView" : 1, "byteOffset" : 0, "componentType" : 5126, "count" : 114, "type" : "VEC3", "max" : [418.499969482422, 0.50000011920929, 691], "min" : [-418.499969482422, -0.50000011920929, -691]}, {"bufferView" : 1, "byteOffset" : 12, "componentType" : 5126, "count" : 114, "type" : "VEC3", "max" : [0.999964714050293, 1.00000441074371, 0.999879777431488], "min" : [-0.999964714050293, -1.00000441074371, -0.999879777431488]}, {"bufferView" : 1, "byteOffset" : 24, "componentType" : 5126, "count" : 114, "type" : "VEC2", "max" : [0.997306108474731, 0.895133674144745], "min" : [0.00129002332687378, 0.0212143063545227]}], "asset" : {"generator" : "Aspose.3D 20.2.1", "version" : "2.0"}, "buffers" : [{"uri" : "buffer.bin", "byteLength" : 1254376}], "bufferViews" : [{"buffer" : 0, "byteOffset" : 0, "byteLength" : 552, "target" : 34963}, {"buffer" : 0, "byteOffset" : 556, "byteLength" : 3648, "byteStride" : 32, "target" : 34962}, {"buffer" : 0, "byteOffset" : 4208, "byteLength" : 1250165}], "images" : [{"mimeType" : "image/png", "bufferView" : 2}], "materials" : [{"pbrMetallicRoughness" : {"baseColorFactor" : [1, 1, 1, 1], "baseColorTexture" : {"index" : 0, "texCoord" : 0}, "metallicFactor" : 0, "roughnessFactor" : 0.552786409854889}, "emissiveFactor" : [0, 0, 0], "alphaMode" : "OPAQUE", "doubleSided" : true}], "meshes" : [{"primitives" : [{"attributes" : {"POSITION" : 1, "NORMAL" : 2, "TEXCOORD_0" : 3}, "indices" : 0, "material" : 0, "mode" : 4}]}], "nodes" : [{"matrix" : [-0.000217671411487036, 1.6433734658551E-11, -1.64337332732908E-11, 0, -4.64730553984115E-10, -8.27051597330954E-10, 0.00615554240616391, 0, 1.64337332732908E-11, 0.000217671400589283, 7.45057425608482E-12, 0, 0, 0, 0, 1], "mesh" : 0, "name" : "pCube1"}], "samplers" : [{"magFilter" : 9729, "minFilter" : 9729, "wrapS" : 10497, "wrapT" : 10497}], "scene" : 0, "scenes" : [{"nodes" : [0]}], "textures" : [{"sampler" : 0, "source" : 0}]}